<svg width="54" height="29" viewBox="0 0 54 29" fill="none" xmlns="http://www.w3.org/2000/svg">
<path d="M32.0941 7.34921C31.9408 7.34921 31.7875 7.29053 31.6707 7.17375L28.595 4.09807C28.3609 3.86392 28.3609 3.48545 28.595 3.2513L31.6707 0.175612C31.9049 -0.0585374 32.2834 -0.0585374 32.5175 0.175612C32.7517 0.409762 32.7517 0.788234 32.5175 1.02238L29.8652 3.67468L32.5175 6.32698C32.7517 6.56113 32.7517 6.9396 32.5175 7.17375C32.4001 7.29113 32.2474 7.34921 32.0941 7.34921Z" fill="black"/>
<path d="M53.2975 28.5813H0.598848C0.268284 28.5813 0 28.3137 0 27.9825V3.67465C0 3.34409 0.268284 3.07581 0.598848 3.07581H23.6539C23.9845 3.07581 24.2528 3.34409 24.2528 3.67465C24.2528 4.00522 23.9845 4.2735 23.6539 4.2735H1.1977V27.3837H52.6986V4.2735H29.0184C28.6872 4.2735 28.4195 4.00522 28.4195 3.67465C28.4195 3.34409 28.6872 3.07581 29.0184 3.07581H53.2975C53.6287 3.07581 53.8963 3.34409 53.8963 3.67465V27.9825C53.8963 28.3137 53.6287 28.5813 53.2975 28.5813Z" fill="black"/>
<path d="M26.9482 22.7156C23.1509 22.7156 20.0614 19.6262 20.0614 15.8289C20.0614 12.0316 23.1509 8.94214 26.9482 8.94214C30.7455 8.94214 33.8349 12.0316 33.8349 15.8289C33.8349 19.6262 30.7455 22.7156 26.9482 22.7156ZM26.9482 10.1398C23.8114 10.1398 21.2591 12.6921 21.2591 15.8289C21.2591 18.9657 23.8114 21.518 26.9482 21.518C30.0849 21.518 32.6372 18.9657 32.6372 15.8289C32.6372 12.6921 30.0849 10.1398 26.9482 10.1398Z" fill="black"/>
<path d="M18.917 22.7157H10.0588C9.72827 22.7157 9.45999 22.448 9.45999 22.1168C9.46059 20.4281 8.1018 19.0693 6.43161 19.0693C6.10105 19.0693 5.83276 18.8016 5.83276 18.4704V13.1868C5.83276 12.8562 6.10105 12.5879 6.43161 12.5879C8.09342 12.5879 9.4516 11.2357 9.45999 9.57394C9.46178 9.24458 9.72947 8.97809 10.0588 8.97809H18.917C19.2476 8.97809 19.5158 9.24637 19.5158 9.57694C19.5158 9.9075 19.2476 10.1758 18.917 10.1758H10.6128C10.3409 12.0178 8.87312 13.4796 7.03046 13.7431V17.9135C8.88928 18.1782 10.3625 19.6568 10.6188 21.518H18.917C19.2476 21.518 19.5158 21.7857 19.5158 22.1168C19.5158 22.448 19.2482 22.7157 18.917 22.7157Z" fill="black"/>
<path d="M43.8369 22.7157H34.9793C34.6482 22.7157 34.3805 22.448 34.3805 22.1168C34.3805 21.7857 34.6482 21.518 34.9793 21.518H43.28C43.5435 19.6651 45.0136 18.1962 46.8653 17.9321V13.7617C45.013 13.4982 43.5435 12.0286 43.28 10.1764H34.9793C34.6482 10.1764 34.3805 9.90811 34.3805 9.57755C34.3805 9.24698 34.6482 8.9787 34.9793 8.9787H43.8369C44.1681 8.9787 44.4358 9.24698 44.4358 9.57755C44.4358 11.2477 45.7945 12.6065 47.4647 12.6065C47.7959 12.6065 48.0636 12.8748 48.0636 13.2054V18.489C48.0636 18.8202 47.7959 19.0879 47.4647 19.0879C45.7945 19.0879 44.4358 20.4472 44.4358 22.1174C44.4358 22.448 44.1681 22.7157 43.8369 22.7157Z" fill="black"/>
</svg>
