<svg width="28" height="27" viewBox="0 0 28 27" fill="none" xmlns="http://www.w3.org/2000/svg">
<g clip-path="url(#clip0_26_443)">
<path d="M13.1507 18.6603C12.9823 18.8175 12.8877 19.0307 12.8875 19.2529C12.8877 19.4752 12.9823 19.6882 13.1507 19.8453C13.3191 20.0025 13.5477 20.091 13.7858 20.0911C14.0241 20.0911 14.2523 20.0028 14.4209 19.8457C14.5894 19.6885 14.6846 19.4753 14.6848 19.2529C14.6846 19.0305 14.5894 18.8172 14.4209 18.66C14.2523 18.5028 14.0241 18.4145 13.7858 18.4145C13.5477 18.4147 13.3191 18.5032 13.1507 18.6603Z" fill="#6E7191"/>
<path d="M13.2779 17.2406C13.4193 17.3331 13.5859 17.3864 13.7585 17.3942L13.7694 17.3993C13.9249 17.3889 14.0764 17.3479 14.2137 17.279C14.3511 17.2101 14.4715 17.1149 14.5665 16.9995C14.6527 16.8919 14.695 16.7593 14.6861 16.6252C14.5611 15.9803 14.605 15.3166 14.8146 14.6911C14.9806 14.2593 15.2559 13.8713 15.6165 13.5596C16.2705 13.166 16.8174 12.6365 17.2155 12.0125C17.3755 11.7534 17.514 11.4829 17.6284 11.2036C17.7371 10.9365 17.822 10.6616 17.8834 10.3817C17.9425 10.1139 17.9777 9.84213 17.988 9.56896C17.9981 9.3069 17.9828 9.04454 17.9428 8.78497C17.9051 8.53739 17.842 8.29382 17.7535 8.05777C17.6679 7.82955 17.556 7.61053 17.4206 7.40442C17.2874 7.20393 17.1293 7.01884 16.9496 6.853C16.768 6.68637 16.5651 6.54178 16.3446 6.42296C16.1088 6.29581 15.8555 6.19914 15.5919 6.13553C15.3295 6.07304 15.0594 6.04177 14.7887 6.04221C14.4051 6.04397 14.0239 6.10028 13.6587 6.20938C13.2704 6.32505 12.9006 6.48801 12.558 6.69413C11.8021 7.155 11.1748 7.77772 10.7287 8.51046C10.5681 8.76926 10.4303 9.03978 10.3165 9.31933C10.2071 9.5863 10.1213 9.86123 10.0601 10.1413C10.0251 10.3823 10.0073 10.6253 10.0068 10.8685C10.0068 11.0908 10.1016 11.304 10.27 11.4612C10.4384 11.6184 10.6669 11.7067 10.9051 11.7067C11.1439 11.7083 11.3737 11.6215 11.5442 11.4654C11.7148 11.3093 11.812 11.0965 11.815 10.8736C11.815 10.8598 11.819 10.8198 11.8228 10.7812C11.8265 10.745 11.83 10.71 11.83 10.6986C11.8568 10.1777 12.0193 9.67085 12.3037 9.22203C12.5234 8.81545 12.8506 8.46768 13.254 8.21154C13.6573 7.9554 14.1237 7.79934 14.6096 7.75789C14.8783 7.75526 15.1427 7.81948 15.3759 7.94404C15.6127 8.08345 15.8103 8.27399 15.9515 8.49961C16.0927 8.72524 16.1735 8.97923 16.1873 9.24021C16.2413 9.87871 16.0799 10.5171 15.7259 11.0658C15.4648 11.4975 15.101 11.8671 14.6622 12.1463C14.644 12.1574 14.0924 12.6168 13.9909 12.7017C13.5664 13.0631 13.2585 13.5282 13.1029 14.0443C12.8474 14.6969 12.7704 15.3985 12.878 16.086C12.8677 16.254 12.8677 16.4224 12.878 16.5904C12.8903 16.7101 12.9136 16.7565 12.9323 16.7937C12.9444 16.8177 12.9545 16.8379 12.9586 16.8715C13.0254 17.0201 13.1364 17.1481 13.2779 17.2406Z" fill="#6E7191"/>
<path fill-rule="evenodd" clip-rule="evenodd" d="M7.09913 22.7072C9.14212 23.9813 11.544 24.6613 14.0011 24.6613C17.2951 24.6587 20.4534 23.4363 22.7826 21.2623C25.1118 19.0884 26.4215 16.1407 26.4243 13.0663C26.4243 10.773 25.6957 8.53127 24.3306 6.62448C22.9655 4.71769 21.0253 3.23153 18.7553 2.35394C16.4852 1.47634 13.9873 1.24672 11.5774 1.69411C9.16758 2.14151 6.95398 3.24583 5.21656 4.86741C3.47914 6.489 2.29595 8.55503 1.81659 10.8042C1.33724 13.0535 1.58326 15.3848 2.52355 17.5035C3.46383 19.6222 5.05614 21.4331 7.09913 22.7072ZM8.062 4.77119C9.81997 3.67484 11.8868 3.08967 14.0011 3.08967C16.8352 3.09278 19.5523 4.1443 21.5564 6.01473C23.5604 7.88517 24.6877 10.4211 24.6911 13.0663C24.6912 15.0397 24.0644 16.9687 22.8898 18.6096C21.7153 20.2504 20.0458 21.5293 18.0925 22.2846C16.1391 23.0399 13.9897 23.2375 11.916 22.8526C9.84232 22.4677 7.93749 21.5175 6.4424 20.1222C4.94731 18.7269 3.92912 16.9491 3.51659 15.0137C3.10405 13.0783 3.31571 11.0721 4.12479 9.24897C4.93387 7.42582 6.30403 5.86754 8.062 4.77119Z" fill="#6E7191"/>
</g>
<defs>
<clipPath id="clip0_26_443">
<rect width="28" height="26.1333" fill="white"/>
</clipPath>
</defs>
</svg>
